<?xml version="1.0" encoding="UTF-8" standalone="no"?>
<svg
   viewBox="-50 -50 360 320.00021"
   fill="currentColor"
   class="Layout_socialLinkIcon__UxpG0"
   aria-hidden="true"
   version="1.1"
   id="svg310"
   sodipodi:docname="bluesky.svg"
   width="360"
   height="320.00021"
   inkscape:version="1.2 (dc2aedaf03, 2022-05-15)"
   xmlns:inkscape="http://www.inkscape.org/namespaces/inkscape"
   xmlns:sodipodi="http://sodipodi.sourceforge.net/DTD/sodipodi-0.dtd"
   xmlns="http://www.w3.org/2000/svg"
   xmlns:svg="http://www.w3.org/2000/svg">
  <defs
     id="defs314" />
  <sodipodi:namedview
     id="namedview312"
     pagecolor="#ffffff"
     bordercolor="#000000"
     borderopacity="0.25"
     inkscape:showpageshadow="2"
     inkscape:pageopacity="0"
     inkscape:pagecheckerboard="0"
     inkscape:deskcolor="#d1d1d1"
     showgrid="false"
     showborder="true"
     inkscape:zoom="2.6333333"
     inkscape:cx="126.26582"
     inkscape:cy="144.87342"
     inkscape:window-width="2560"
     inkscape:window-height="1351"
     inkscape:window-x="-9"
     inkscape:window-y="-9"
     inkscape:window-maximized="1"
     inkscape:current-layer="svg310" />
  <path
     d="m 130,91.964005 c -16.301,-31.702 -60.692,-90.7823004 -101.9653,-119.92 -39.5376,-27.91234 -54.6207,-23.07607 -64.5087,-18.60806 -11.44507,5.17161 -13.526,22.74256 -13.526,33.08046 0,10.3377996 5.66748,84.7556 9.36416,97.1776 C -28.4214,124.738 15.0603,138.607 55.104,134.156 c 2.047,-0.304 4.123,-0.584 6.225,-0.844 -2.062,0.33 -4.139,0.612 -6.225,0.844 C -3.5796,142.847 -55.69621,164.233 12.6582,240.33 87.848,318.18 115.705,223.637 130,175.702 144.295,223.637 160.76,314.771 245.995,240.33 310,175.702 263.58,142.85 204.896,134.158 c -2.086,-0.232 -4.163,-0.513 -6.225,-0.843 2.102,0.259 4.178,0.54 6.225,0.843 40.044,4.452 83.525,-9.418 95.74,-50.460995 3.697,-12.422 9.364,-86.8402004 9.364,-97.178 0,-10.3379 -2.081,-27.90888 -13.526,-33.08049 -9.888,-4.468 -24.971,-9.30427 -64.509,18.60809 C 190.692,1.1843046 146.301,60.262005 130,91.964005 Z"
     id="path308"
     style="fill:#ffffff;fill-opacity:1" />
</svg>
